<svg xmlns:xlink="http://www.w3.org/1999/xlink" xmlns="http://www.w3.org/2000/svg" viewBox="0 0 1000 1000" preserveAspectRatio="xMaxYMax slice"><g transform="scale(0.9380863039399625)"><rect x="0" y="0" width="1066" height="1066" fill="#0D1E29"/><rect x="0" y="0" width="266.5" height="266.5" fill="#0D1E29"/><rect x="0" y="0" width="133.25" height="133.25" fill="#0e202b"/><g transform="translate(0,0) scale(6.6625) rotate(0)"><path fill-rule="evenodd" clip-rule="evenodd" d="M10 20C15.5228 20 20 15.5228 20 10C20 4.47715 15.5228 0 10 0C4.47715 0 0 4.47715 0 10C0 15.5228 4.47715 20 10 20ZM10 17C13.866 17 17 13.866 17 10C17 6.13401 13.866 3 10 3C6.13401 3 3 6.13401 3 10C3 13.866 6.13401 17 10 17Z" fill="#0f212d"/></g><rect x="133.25" y="0" width="133.25" height="133.25" fill="#0e202c"/><g transform="translate(133.25,0) scale(6.6625) rotate(0)"><rect width="20" height="2" fill="#0d1e29"/><rect y="4" width="20" height="2" fill="#0d1e29"/><rect y="8" width="20" height="2" fill="#0d1e29"/><rect y="12" width="20" height="2" fill="#0d1e29"/><rect y="16" width="20" height="2" fill="#0d1e29"/></g><rect x="0" y="133.25" width="133.25" height="133.25" fill="#132835"/><polygon points="0,133.25 133.25,133.25 133.25,266.5" fill="#10232f"/><rect x="133.25" y="133.25" width="133.25" height="133.25" fill="#0e1f2b"/><polygon points="133.25,133.25 266.5,133.25 266.5,266.5" fill="#0e212c"/><rect x="266.5" y="0" width="266.5" height="266.5" fill="#0D1E29"/><rect x="266.5" y="0" width="133.25" height="133.25" fill="#132733"/><g transform="translate(266.5,0) scale(6.6625) rotate(0)"><path fill-rule="evenodd" clip-rule="evenodd" d="M10 20C15.5228 20 20 15.5228 20 10C20 4.47715 15.5228 0 10 0C4.47715 0 0 4.47715 0 10C0 15.5228 4.47715 20 10 20ZM10 17C13.866 17 17 13.866 17 10C17 6.13401 13.866 3 10 3C6.13401 3 3 6.13401 3 10C3 13.866 6.13401 17 10 17Z" fill="#0e1f2b"/></g><rect x="399.75" y="0" width="133.25" height="133.25" fill="#0f212d"/><polygon points="399.75,0 533,0 399.75,133.25" fill="#0e202b"/><rect x="266.5" y="133.25" width="133.25" height="133.25" fill="#112431"/><g transform="translate(266.5,133.25) scale(6.6625) rotate(0)"><path fill-rule="evenodd" clip-rule="evenodd" d="M10 20C15.5228 20 20 15.5228 20 10C20 4.47715 15.5228 0 10 0C4.47715 0 0 4.47715 0 10C0 15.5228 4.47715 20 10 20ZM10 17C13.866 17 17 13.866 17 10C17 6.13401 13.866 3 10 3C6.13401 3 3 6.13401 3 10C3 13.866 6.13401 17 10 17Z" fill="#0d1e2a"/></g><rect x="399.75" y="133.25" width="133.25" height="133.25" fill="#10222e"/><g transform="translate(399.75,133.25) scale(6.6625) rotate(0)"><rect width="20" height="2" fill="#112531"/><rect y="4" width="20" height="2" fill="#112531"/><rect y="8" width="20" height="2" fill="#112531"/><rect y="12" width="20" height="2" fill="#112531"/><rect y="16" width="20" height="2" fill="#112531"/></g><rect x="533" y="0" width="266.5" height="266.5" fill="#0D1E29"/><rect x="533" y="0" width="133.25" height="133.25" fill="#0e202b"/><rect x="533" y="0" width="133.25" height="133.25" fill="#142835"/><rect x="666.25" y="0" width="133.25" height="133.25" fill="#112531"/><polygon points="666.25,0 799.5,0 666.25,133.25" fill="#0f222e"/><rect x="533" y="133.25" width="133.25" height="133.25" fill="#0f222e"/><g transform="translate(533,133.25) scale(6.6625) rotate(0)"><rect width="20" height="2" fill="#132734"/><rect y="4" width="20" height="2" fill="#132734"/><rect y="8" width="20" height="2" fill="#132734"/><rect y="12" width="20" height="2" fill="#132734"/><rect y="16" width="20" height="2" fill="#132734"/></g><rect x="666.25" y="133.25" width="133.25" height="133.25" fill="#0e212d"/><g transform="translate(666.25,133.25) scale(6.6625) rotate(0)"><rect width="20" height="2" fill="#0e212d"/><rect y="4" width="20" height="2" fill="#0e212d"/><rect y="8" width="20" height="2" fill="#0e212d"/><rect y="12" width="20" height="2" fill="#0e212d"/><rect y="16" width="20" height="2" fill="#0e212d"/></g><rect x="799.5" y="0" width="266.5" height="266.5" fill="#0d1f2a"/><polygon points="799.5,0 1066,0 799.5,266.5" fill="#112430"/><rect x="0" y="266.5" width="266.5" height="266.5" fill="#132835"/><polygon points="0,266.5 266.5,266.5 266.5,533" fill="#0d1e2a"/><rect x="266.5" y="266.5" width="266.5" height="266.5" fill="#0D1E29"/><rect x="266.5" y="266.5" width="133.25" height="133.25" fill="#0f212d"/><polygon points="266.5,266.5 399.75,266.5 399.75,399.75" fill="#132734"/><rect x="399.75" y="266.5" width="133.25" height="133.25" fill="#112430"/><polygon points="533,266.5 533,399.75 399.75,399.75" fill="#142835"/><rect x="266.5" y="399.75" width="133.25" height="133.25" fill="#0f212d"/><g transform="translate(266.5,399.75) scale(6.6625) rotate(0)"><rect width="20" height="2" fill="#0e202b"/><rect y="4" width="20" height="2" fill="#0e202b"/><rect y="8" width="20" height="2" fill="#0e202b"/><rect y="12" width="20" height="2" fill="#0e202b"/><rect y="16" width="20" height="2" fill="#0e202b"/></g><rect x="399.75" y="399.75" width="133.25" height="133.25" fill="#0d1e29"/><polygon points="399.75,399.75 533,399.75 399.75,533" fill="#10232f"/><rect x="533" y="266.5" width="266.5" height="266.5" fill="#0D1E29"/><rect x="533" y="266.5" width="133.25" height="133.25" fill="#0e1f2b"/><g transform="translate(533,266.5) scale(6.6625) rotate(0)"><path fill-rule="evenodd" clip-rule="evenodd" d="M10 20C15.5228 20 20 15.5228 20 10C20 4.47715 15.5228 0 10 0C4.47715 0 0 4.47715 0 10C0 15.5228 4.47715 20 10 20ZM10 17C13.866 17 17 13.866 17 10C17 6.13401 13.866 3 10 3C6.13401 3 3 6.13401 3 10C3 13.866 6.13401 17 10 17Z" fill="#112430"/></g><rect x="666.25" y="266.5" width="133.25" height="133.25" fill="#0e202c"/><g transform="translate(666.25,266.5) scale(6.6625) rotate(0)"><path fill-rule="evenodd" clip-rule="evenodd" d="M10 20C15.5228 20 20 15.5228 20 10C20 4.47715 15.5228 0 10 0C4.47715 0 0 4.47715 0 10C0 15.5228 4.47715 20 10 20ZM10 17C13.866 17 17 13.866 17 10C17 6.13401 13.866 3 10 3C6.13401 3 3 6.13401 3 10C3 13.866 6.13401 17 10 17Z" fill="#0d1f2a"/></g><rect x="533" y="399.75" width="133.25" height="133.25" fill="#0f222e"/><g transform="translate(533,399.75) scale(6.6625) rotate(0)"><path fill-rule="evenodd" clip-rule="evenodd" d="M10 20C15.5228 20 20 15.5228 20 10C20 4.47715 15.5228 0 10 0C4.47715 0 0 4.47715 0 10C0 15.5228 4.47715 20 10 20ZM10 17C13.866 17 17 13.866 17 10C17 6.13401 13.866 3 10 3C6.13401 3 3 6.13401 3 10C3 13.866 6.13401 17 10 17Z" fill="#0e1f2b"/></g><rect x="666.25" y="399.75" width="133.25" height="133.25" fill="#0e202b"/><rect x="666.25" y="399.75" width="133.25" height="133.25" fill="#112430"/><rect x="799.5" y="266.5" width="266.5" height="266.5" fill="#0D1E29"/><rect x="799.5" y="266.5" width="133.25" height="133.25" fill="#0d1f2a"/><rect x="799.5" y="266.5" width="133.25" height="133.25" fill="#10232f"/><rect x="932.75" y="266.5" width="133.25" height="133.25" fill="#0d1e29"/><polygon points="932.75,266.5 1066,266.5 932.75,399.75" fill="#0d1f2a"/><rect x="799.5" y="399.75" width="133.25" height="133.25" fill="#0d1e29"/><polygon points="799.5,399.75 932.75,533 799.5,533" fill="#0e212c"/><rect x="932.75" y="399.75" width="133.25" height="133.25" fill="#122632"/><g transform="translate(932.75,399.75) scale(6.6625) rotate(0)"><path fill-rule="evenodd" clip-rule="evenodd" d="M10 20C15.5228 20 20 15.5228 20 10C20 4.47715 15.5228 0 10 0C4.47715 0 0 4.47715 0 10C0 15.5228 4.47715 20 10 20ZM10 17C13.866 17 17 13.866 17 10C17 6.13401 13.866 3 10 3C6.13401 3 3 6.13401 3 10C3 13.866 6.13401 17 10 17Z" fill="#0e202c"/></g><rect x="0" y="533" width="266.5" height="266.5" fill="#0f212c"/><rect x="0" y="533" width="266.5" height="266.5" fill="#10222e"/><rect x="266.5" y="533" width="266.5" height="266.5" fill="#0d1f2a"/><polygon points="533,533 533,799.5 266.5,799.5" fill="#0e212d"/><rect x="533" y="533" width="266.5" height="266.5" fill="#0D1E29"/><rect x="533" y="533" width="133.25" height="133.25" fill="#0f212d"/><rect x="533" y="533" width="133.25" height="133.25" fill="#0f212d"/><rect x="666.25" y="533" width="133.25" height="133.25" fill="#142936"/><polygon points="799.5,533 799.5,666.25 666.25,666.25" fill="#10222e"/><rect x="533" y="666.25" width="133.25" height="133.25" fill="#0e1f2a"/><rect x="533" y="666.25" width="133.25" height="133.25" fill="#0d1f2a"/><rect x="666.25" y="666.25" width="133.25" height="133.25" fill="#0f212d"/><g transform="translate(666.25,666.25) scale(6.6625) rotate(0)"><path fill-rule="evenodd" clip-rule="evenodd" d="M10 20C15.5228 20 20 15.5228 20 10C20 4.47715 15.5228 0 10 0C4.47715 0 0 4.47715 0 10C0 15.5228 4.47715 20 10 20ZM10 17C13.866 17 17 13.866 17 10C17 6.13401 13.866 3 10 3C6.13401 3 3 6.13401 3 10C3 13.866 6.13401 17 10 17Z" fill="#0f212d"/></g><rect x="799.5" y="533" width="266.5" height="266.5" fill="#0e202b"/><rect x="799.5" y="533" width="266.5" height="266.5" fill="#132834"/><rect x="0" y="799.5" width="266.5" height="266.5" fill="#10232e"/><g transform="translate(0,799.5) scale(13.325) rotate(0)"><rect width="20" height="2" fill="#0e202b"/><rect y="4" width="20" height="2" fill="#0e202b"/><rect y="8" width="20" height="2" fill="#0e202b"/><rect y="12" width="20" height="2" fill="#0e202b"/><rect y="16" width="20" height="2" fill="#0e202b"/></g><rect x="266.5" y="799.5" width="266.5" height="266.5" fill="#132734"/><g transform="translate(266.5,799.5) scale(13.325) rotate(0)"><path fill-rule="evenodd" clip-rule="evenodd" d="M10 20C15.5228 20 20 15.5228 20 10C20 4.47715 15.5228 0 10 0C4.47715 0 0 4.47715 0 10C0 15.5228 4.47715 20 10 20ZM10 17C13.866 17 17 13.866 17 10C17 6.13401 13.866 3 10 3C6.13401 3 3 6.13401 3 10C3 13.866 6.13401 17 10 17Z" fill="#122632"/></g><rect x="533" y="799.5" width="266.5" height="266.5" fill="#0D1E29"/><rect x="533" y="799.5" width="133.25" height="133.25" fill="#0f212d"/><polygon points="533,799.5 666.25,932.75 533,932.75" fill="#0e1f2a"/><rect x="666.25" y="799.5" width="133.25" height="133.25" fill="#0f222d"/><polygon points="666.25,799.5 799.5,799.5 799.5,932.75" fill="#0f222e"/><rect x="533" y="932.75" width="133.25" height="133.25" fill="#0f212d"/><rect x="533" y="932.75" width="133.25" height="133.25" fill="#132734"/><rect x="666.25" y="932.75" width="133.25" height="133.25" fill="#0e1f2a"/><rect x="666.25" y="932.75" width="133.25" height="133.25" fill="#0e202b"/><rect x="799.5" y="799.5" width="266.5" height="266.5" fill="#0D1E29"/><rect x="799.5" y="799.5" width="133.25" height="133.25" fill="#0e1f2a"/><polygon points="799.5,799.5 932.75,932.75 799.5,932.75" fill="#0d1f2a"/><rect x="932.75" y="799.5" width="133.25" height="133.25" fill="#112531"/><polygon points="1066,799.5 1066,932.75 932.75,932.75" fill="#0e202b"/><rect x="799.5" y="932.75" width="133.25" height="133.25" fill="#0e202c"/><rect x="799.5" y="932.75" width="133.25" height="133.25" fill="#0f212d"/><rect x="932.75" y="932.75" width="133.25" height="133.25" fill="#0f222e"/><polygon points="932.75,932.75 1066,932.75 932.75,1066" fill="#0d1e29"/></g></svg>